<svg width="675" height="675" viewBox="0 0 675 675" fill="none" xmlns="http://www.w3.org/2000/svg">
<path d="M208.953 439.668C173.299 410.211 66.15 326.97 102.681 235.642C140.71 140.4 217.822 153.9 309.42 204.741C394.956 252.234 410.913 146.124 526.621 210.37C624.591 264.775 634.216 450.765 465.952 504.319C363.798 536.827 249.264 472.959 208.953 439.668Z" fill="#6558C0"/>
<path opacity="0.9" d="M208.953 439.668C173.299 410.211 66.15 326.97 102.681 235.642C140.71 140.4 217.822 153.9 309.42 204.741C394.956 252.234 410.913 146.124 526.621 210.37C624.591 264.775 634.216 450.765 465.952 504.319C363.798 536.827 249.264 472.959 208.953 439.668Z" fill="white"/>
<path d="M330.993 572.008C475.554 572.008 592.745 565.167 592.745 556.727C592.745 548.287 475.554 541.445 330.993 541.445C186.432 541.445 69.2415 548.287 69.2415 556.727C69.2415 565.167 186.432 572.008 330.993 572.008Z" fill="#F5F5F5"/>
<path d="M160.11 555.957L126.09 543.429L91.692 555.97C91.4167 556.07 91.1213 556.102 90.831 556.064C90.5407 556.025 90.2639 555.917 90.0242 555.749C89.7845 555.581 89.5888 555.357 89.4538 555.097C89.3187 554.837 89.2483 554.549 89.2485 554.256C89.2478 553.909 89.3467 553.57 89.5334 553.278C89.7201 552.986 89.9867 552.754 90.3015 552.609L126.09 535.95L161.514 552.555C161.828 552.701 162.094 552.934 162.28 553.225C162.466 553.517 162.566 553.856 162.567 554.202C162.575 554.5 162.509 554.795 162.376 555.062C162.243 555.328 162.047 555.558 161.804 555.732C161.562 555.905 161.281 556.016 160.985 556.055C160.69 556.095 160.389 556.061 160.11 555.957Z" fill="#263238"/>
<path opacity="0.3" d="M160.11 555.957L126.09 543.429L91.692 555.97C91.4167 556.07 91.1213 556.102 90.831 556.064C90.5407 556.025 90.2639 555.917 90.0242 555.749C89.7845 555.581 89.5888 555.357 89.4538 555.097C89.3187 554.837 89.2483 554.549 89.2485 554.256C89.2478 553.909 89.3467 553.57 89.5334 553.278C89.7201 552.986 89.9867 552.754 90.3015 552.609L126.09 535.95L161.514 552.555C161.828 552.701 162.094 552.934 162.28 553.225C162.466 553.517 162.566 553.856 162.567 554.202C162.575 554.5 162.509 554.795 162.376 555.062C162.243 555.328 162.047 555.558 161.804 555.732C161.562 555.905 161.281 556.016 160.985 556.055C160.69 556.095 160.389 556.061 160.11 555.957Z" fill="white"/>
<path opacity="0.2" d="M118.071 546.345L126.09 543.429L133.731 546.25V539.581L126.09 536.004L118.071 539.717V546.345Z" fill="black"/>
<path d="M125.901 556.2C125.148 556.208 124.419 555.936 123.856 555.437C123.292 554.938 122.934 554.248 122.85 553.5L121.891 543.415V459.715H129.87V543.415L128.911 553.5C128.832 554.242 128.48 554.929 127.924 555.427C127.368 555.926 126.648 556.201 125.901 556.2Z" fill="#263238"/>
<path opacity="0.3" d="M125.901 556.2C125.148 556.208 124.419 555.936 123.856 555.437C123.292 554.938 122.934 554.248 122.85 553.5L121.891 543.415V459.715H129.87V543.415L128.911 553.5C128.832 554.242 128.48 554.929 127.924 555.427C127.368 555.926 126.648 556.201 125.901 556.2Z" fill="white"/>
<path opacity="0.2" d="M129.87 459.702H121.932V469.449H129.87V459.702Z" fill="black"/>
<path d="M108.108 373.45C108.723 373.435 109.331 373.589 109.865 373.896C110.398 374.203 110.837 374.652 111.132 375.192C125.658 399.529 130.876 428.304 125.82 456.192C125.743 456.896 125.416 457.549 124.898 458.032C124.38 458.515 123.706 458.796 122.999 458.824C120.798 458.986 81.621 458.824 80.2035 458.824C79.6231 458.838 79.0468 458.724 78.5158 458.489C77.9848 458.255 77.5122 457.905 77.1317 457.467C76.7512 457.028 76.4723 456.511 76.3149 455.953C76.1575 455.394 76.1254 454.807 76.221 454.234C80.7963 428.269 75.8443 401.524 62.2755 378.918C61.9617 378.356 61.8029 377.721 61.8153 377.078C61.8276 376.434 62.0108 375.806 62.3459 375.256C62.681 374.707 63.1561 374.256 63.7225 373.951C64.2889 373.645 64.9263 373.496 65.5695 373.518C66.7035 373.423 105.611 373.491 108.108 373.45Z" fill="#6558C0"/>
<path opacity="0.2" d="M108.108 373.45C108.723 373.435 109.331 373.589 109.865 373.896C110.398 374.203 110.837 374.652 111.132 375.192C125.658 399.529 130.876 428.304 125.82 456.192C125.743 456.896 125.416 457.549 124.898 458.032C124.38 458.515 123.706 458.796 122.999 458.824C120.798 458.986 81.621 458.824 80.2035 458.824C79.6231 458.838 79.0468 458.724 78.5158 458.489C77.9848 458.255 77.5122 457.905 77.1317 457.467C76.7512 457.028 76.4723 456.511 76.3149 455.953C76.1575 455.394 76.1254 454.807 76.221 454.234C80.7963 428.269 75.8443 401.524 62.2755 378.918C61.9617 378.356 61.8029 377.721 61.8153 377.078C61.8276 376.434 62.0108 375.806 62.3459 375.256C62.681 374.707 63.1561 374.256 63.7225 373.951C64.2889 373.645 64.9263 373.496 65.5695 373.518C66.7035 373.423 105.611 373.491 108.108 373.45Z" fill="black"/>
<path d="M76.221 454.208C80.7963 428.242 75.8443 401.497 62.2755 378.891C59.8455 374.841 66.177 371.155 68.607 375.192C83.1263 399.531 88.3438 428.304 83.295 456.192C82.458 460.823 75.384 458.892 76.221 454.248V454.208Z" fill="#6558C0"/>
<g opacity="0.1">
<path opacity="0.1" d="M76.221 454.208C80.7963 428.242 75.8443 401.497 62.2755 378.891C59.8455 374.841 66.177 371.155 68.607 375.192C83.1263 399.531 88.3438 428.304 83.295 456.192C82.458 460.823 75.384 458.892 76.221 454.248V454.208Z" fill="white"/>
</g>
<path d="M198.45 452.088C189.468 449.801 180.257 448.533 170.991 448.308C161.447 448.065 125.766 448.308 117.288 448.308C106.953 448.294 96.6578 449.577 86.643 452.128C80.352 453.735 82.2825 462.807 87.993 462.929C88.4925 462.929 196.398 462.929 196.79 462.929C202.635 463.145 204.809 453.721 198.45 452.088Z" fill="#6558C0"/>
<path opacity="0.3" d="M198.45 452.088C189.468 449.801 180.257 448.533 170.991 448.308C161.447 448.065 125.766 448.308 117.288 448.308C106.953 448.294 96.6578 449.577 86.643 452.128C80.352 453.735 82.2825 462.807 87.993 462.929C88.4925 462.929 196.398 462.929 196.79 462.929C202.635 463.145 204.809 453.721 198.45 452.088Z" fill="black"/>
<path d="M89.4915 462.685C107.683 458.055 126.745 458.055 144.936 462.685C151.794 464.427 154.723 453.829 147.865 452.088C127.754 446.985 106.687 446.985 86.5755 452.088C79.7175 453.829 82.62 464.427 89.4915 462.685Z" fill="#6558C0"/>
<g opacity="0.3">
<path opacity="0.3" d="M89.4915 462.685C107.683 458.055 126.745 458.055 144.936 462.685C151.794 464.427 154.723 453.829 147.865 452.088C127.754 446.985 106.687 446.985 86.5755 452.088C79.7175 453.829 82.62 464.427 89.4915 462.685Z" fill="white"/>
</g>
<path d="M188.811 394.713L201.218 394.186L204.93 391.81C205.363 391.53 205.849 391.342 206.357 391.258C206.866 391.175 207.387 391.197 207.887 391.324L210.587 391.986C211.268 392.157 211.984 392.135 212.653 391.923C213.323 391.71 213.921 391.316 214.38 390.784C214.749 390.355 215.017 389.849 215.164 389.303C215.312 388.756 215.336 388.184 215.233 387.627C215.131 387.071 214.906 386.544 214.573 386.086C214.241 385.628 213.811 385.25 213.313 384.979L209.263 382.792C208.632 382.448 207.915 382.292 207.197 382.342C206.479 382.392 205.791 382.647 205.213 383.076L198.679 387.909L188.838 387.22L188.811 394.713Z" fill="#EBB376"/>
<path d="M175.379 346.626L171.086 384.426L195.237 386.154L194.171 394.834C194.171 394.834 169.749 399.101 160.798 396.657C151.848 394.214 163.768 353.308 163.768 353.308L175.379 346.626Z" fill="#6558C0"/>
<path opacity="0.2" d="M175.379 346.626L171.086 384.426L195.237 386.154L194.171 394.834C194.171 394.834 169.749 399.101 160.798 396.657C151.848 394.214 163.768 353.308 163.768 353.308L175.379 346.626Z" fill="white"/>
<path opacity="0.1" d="M167.629 393.255C161.325 389.974 169.789 358.506 172.773 348.138L163.768 353.335C163.768 353.335 151.848 394.24 160.798 396.684C166.306 398.182 177.647 397.156 185.571 396.13C180.171 396.13 172.273 395.671 167.629 393.255Z" fill="black"/>
<path d="M154.008 420.498C136.177 423.823 117.992 424.849 99.9 423.549C99.9 423.549 104.058 375.151 118.8 348.664C121.145 344.457 125.008 341.304 129.6 339.849C140.184 336.555 157.207 333.598 175.324 346.599C175.378 346.626 166.212 363.717 154.008 420.498Z" fill="#6558C0"/>
<path opacity="0.4" d="M154.008 420.498C136.177 423.823 117.992 424.849 99.9 423.549C99.9 423.549 104.058 375.151 118.8 348.664C121.145 344.457 125.008 341.304 129.6 339.849C140.184 336.555 157.207 333.598 175.324 346.599C175.378 346.626 166.212 363.717 154.008 420.498Z" fill="white"/>
<path d="M162.81 358.681C162.81 358.97 162.724 359.252 162.564 359.491C162.404 359.731 162.176 359.918 161.91 360.028C161.644 360.139 161.35 360.168 161.068 360.111C160.785 360.055 160.525 359.916 160.321 359.712C160.117 359.508 159.978 359.249 159.922 358.966C159.866 358.683 159.895 358.39 160.005 358.123C160.115 357.857 160.302 357.629 160.542 357.469C160.782 357.309 161.064 357.223 161.352 357.223C161.739 357.223 162.11 357.377 162.383 357.65C162.656 357.924 162.81 358.295 162.81 358.681Z" fill="#6558C0"/>
<path d="M157.68 373.545C157.68 373.833 157.594 374.115 157.434 374.355C157.274 374.595 157.046 374.782 156.78 374.892C156.514 375.002 156.22 375.031 155.938 374.975C155.655 374.919 155.395 374.78 155.191 374.576C154.987 374.372 154.848 374.112 154.792 373.829C154.736 373.547 154.765 373.253 154.875 372.987C154.985 372.721 155.172 372.493 155.412 372.333C155.652 372.172 155.934 372.087 156.222 372.087C156.609 372.087 156.98 372.241 157.253 372.514C157.526 372.787 157.68 373.158 157.68 373.545Z" fill="#6558C0"/>
<path d="M151.564 394.713C152.37 394.713 153.022 394.06 153.022 393.255C153.022 392.45 152.37 391.797 151.564 391.797C150.759 391.797 150.107 392.45 150.107 393.255C150.107 394.06 150.759 394.713 151.564 394.713Z" fill="#6558C0"/>
<path d="M149.189 409.657C149.191 409.946 149.108 410.23 148.949 410.471C148.791 410.713 148.564 410.902 148.298 411.014C148.032 411.126 147.738 411.157 147.454 411.103C147.171 411.048 146.91 410.91 146.704 410.707C146.499 410.503 146.359 410.244 146.302 409.96C146.244 409.677 146.272 409.383 146.382 409.116C146.492 408.849 146.679 408.62 146.919 408.46C147.159 408.299 147.442 408.213 147.73 408.213C148.115 408.213 148.484 408.365 148.757 408.635C149.03 408.906 149.185 409.273 149.189 409.657Z" fill="#6558C0"/>
<path opacity="0.1" d="M164.605 377.392L146.272 381.523L131.827 377.555L126.13 361.273L124.902 352.12H120.852C120.852 352.12 116.977 381.28 130.207 393.255C138.456 400.72 151.929 395.861 160.893 391.136C162.198 386.06 163.436 381.478 164.605 377.392Z" fill="black"/>
<path d="M176.472 508.518L170.114 536.206L178.011 539.271L189.378 511.42L176.472 508.518Z" fill="#EBB376"/>
<path d="M177.552 537.448L170.383 533.614C170.231 533.536 170.056 533.51 169.888 533.542C169.719 533.574 169.565 533.661 169.452 533.79L164.335 539.716C164.225 539.839 164.14 539.982 164.086 540.138C164.031 540.294 164.009 540.459 164.019 540.623C164.029 540.788 164.071 540.949 164.144 541.097C164.217 541.245 164.319 541.377 164.443 541.485C164.509 541.547 164.581 541.602 164.659 541.647C167.67 543.199 170.41 544.468 174.109 546.466C178.497 548.829 177.093 548.748 182.209 551.596C185.287 553.311 187.758 550.084 186.529 549.207C180.927 545.157 180.171 542.457 179.01 539.028C178.728 538.345 178.211 537.785 177.552 537.448Z" fill="#263238"/>
<path d="M112.495 422.631L151.2 420.498C151.2 420.498 215.608 430.569 214.65 448.578C213.691 466.587 187.65 523.368 187.65 523.368L172.287 519.102C172.287 519.102 183.991 462.011 191.619 452.547C191.619 452.547 143.518 446.904 131.476 443.705C124.794 441.936 108.823 444.92 112.495 422.631Z" fill="#263238"/>
<path opacity="0.2" d="M185.045 451.764C185.278 446.425 184.266 441.105 182.088 436.225C178.51 428.125 149.026 423.279 134.919 421.375L112.495 422.604C108.823 444.892 124.794 441.909 131.395 443.677C140.71 446.175 171.45 450.104 185.045 451.764Z" fill="black"/>
<path d="M150.134 516.146L149.121 544.536L157.667 544.941L163.35 516.551L150.134 516.146Z" fill="#EBB376"/>
<path d="M157.059 542.362L148.77 542.538C148.595 542.539 148.425 542.602 148.292 542.715C148.159 542.829 148.07 542.986 148.041 543.159L146.448 550.962C146.393 551.293 146.464 551.633 146.646 551.915C146.828 552.197 147.109 552.401 147.433 552.487H147.704C151.16 552.366 154.21 552.123 158.503 552.042C163.579 551.947 162.297 552.582 168.264 552.555C171.855 552.555 172.435 548.505 170.964 548.275C163.984 547.533 161.932 545.44 159.205 542.997C158.594 542.525 157.829 542.298 157.059 542.362Z" fill="#263238"/>
<path d="M122.85 422.631C122.85 422.631 174.744 424.467 177.809 440.343C180.873 456.219 163.458 527.337 163.458 527.337H147.906C147.906 527.337 149.729 463.536 154.926 450.103C154.926 450.103 112.185 456.854 100.926 447.12C92.826 440.195 102.451 422.631 102.451 422.631H122.85Z" fill="#263238"/>
<path d="M170.991 515.74L190.337 521.127L186.799 528.566L169.168 524.192L170.991 515.74Z" fill="#263238"/>
<path opacity="0.3" d="M170.991 515.74L190.337 521.127L186.799 528.566L169.168 524.192L170.991 515.74Z" fill="black"/>
<path d="M170.1 372.06L185.558 366.97L195.453 371.398C195.917 371.603 196.325 371.918 196.64 372.315C196.955 372.713 197.169 373.181 197.262 373.68L198.302 379.309C198.387 379.76 198.372 380.224 198.257 380.668C198.143 381.113 197.932 381.526 197.639 381.879C197.346 382.233 196.979 382.517 196.564 382.712C196.149 382.907 195.696 383.009 195.237 383.008C194.509 383.006 193.803 382.754 193.239 382.293L184.545 375.111L171.045 380.511L170.1 372.06Z" fill="#EBB376"/>
<path d="M146.367 523.368L165.915 524.286L164.079 532.075L146.367 531.157V523.368Z" fill="#263238"/>
<path opacity="0.3" d="M146.367 523.368L165.915 524.286L164.079 532.075L146.367 531.157V523.368Z" fill="black"/>
<path d="M121.851 346.626C124.862 342.117 129.654 337.405 141.791 377.149L178.2 368.199L179.266 378.121C179.266 378.121 149.567 394.038 137.646 391.81C125.725 389.583 113.576 359.019 121.851 346.626Z" fill="#6558C0"/>
<path opacity="0.2" d="M121.851 346.626C124.862 342.117 129.654 337.405 141.791 377.149L178.2 368.199L179.266 378.121C179.266 378.121 149.567 394.038 137.646 391.81C125.725 389.583 113.576 359.019 121.851 346.626Z" fill="white"/>
<path d="M159.907 332.788L153.009 339.255C153.009 339.255 155.709 347.638 162.58 347.638C169.452 347.638 165.28 337.027 165.28 337.027L159.907 332.788Z" fill="#EBB376"/>
<path d="M163.552 352.498L166.9 350.743L168.318 348.611L167.724 341.996C162.192 339.213 156.162 337.561 149.985 337.135L149.729 340.213L153.468 351.014L157.828 352.458L163.552 352.498Z" fill="#EBB376"/>
<path opacity="0.1" d="M165.294 337.027L159.894 332.788L158.976 333.639C158.45 336.798 157.842 343.359 161.339 345.937C161.878 346.377 162.516 346.68 163.197 346.821C163.878 346.962 164.584 346.937 165.254 346.747C168.116 344.25 165.294 337.027 165.294 337.027Z" fill="black"/>
<path d="M161.635 353.335L166.819 356.035C170.464 351.702 169.519 345.627 168.723 342.454C168.115 342.13 167.508 341.82 166.9 341.536C167.589 346.329 167.035 351.594 161.325 351.756C152.374 352.026 151.038 340.578 150.835 337.149L148.905 337.027C146.07 349.704 154.008 356.035 154.008 356.035L161.635 353.335Z" fill="#6558C0"/>
<path opacity="0.2" d="M161.635 353.335L166.819 356.035C170.464 351.702 169.519 345.627 168.723 342.454C168.115 342.13 167.508 341.82 166.9 341.536C167.589 346.329 167.035 351.594 161.325 351.756C152.374 352.026 151.038 340.578 150.835 337.149L148.905 337.027C146.07 349.704 154.008 356.035 154.008 356.035L161.635 353.335Z" fill="white"/>
<path d="M183.775 316.75C188.716 319.95 187.258 327.969 182.101 331.263C180.643 322.083 183.775 316.75 183.775 316.75Z" fill="#263238"/>
<path opacity="0.4" d="M183.775 316.75C188.716 319.95 187.258 327.969 182.101 331.263C180.643 322.083 183.775 316.75 183.775 316.75Z" fill="black"/>
<path d="M161.149 322.029C159.3 330.48 157.774 335.313 160.704 340.929C162.061 343.586 164.417 345.596 167.254 346.517C170.092 347.438 173.179 347.196 175.837 345.843C177.869 344.799 179.54 343.166 180.63 341.158C184.518 334.287 186.894 321.624 179.806 315.738C178.307 314.419 176.487 313.518 174.529 313.126C172.571 312.735 170.544 312.865 168.652 313.506C166.761 314.146 165.072 315.274 163.754 316.775C162.437 318.276 161.539 320.097 161.149 322.056V322.029Z" fill="#EBB376"/>
<path d="M160.258 329.913C164.781 332.235 167.683 324.31 167.008 320.463C172.881 324.513 186.084 323.892 189.958 318.532C194.184 312.66 187.839 307.732 182.101 305.91C181.726 305.811 181.334 305.79 180.95 305.851C180.566 305.911 180.198 306.05 179.871 306.259C179.544 306.469 179.263 306.744 179.048 307.067C178.832 307.39 178.686 307.755 178.618 308.137C178.557 308.399 178.409 308.631 178.2 308.799C176.988 307.765 175.671 306.86 174.271 306.099C173.292 305.617 172.184 305.459 171.109 305.649C170.034 305.838 169.047 306.365 168.291 307.152C167.616 307.759 165.996 307.881 162.729 306.787C155.979 304.492 154.804 311.863 158.098 313.294C155.115 315.117 150.187 320.125 152.847 324.526C155.506 328.927 157.788 334.746 156.289 335.704C157.707 336.258 160.15 334.8 160.258 329.913Z" fill="#263238"/>
<path d="M156.033 328.05C156.077 329.985 156.843 331.834 158.18 333.234C159.948 335.029 161.987 333.679 162.446 331.29C162.851 329.13 162.446 325.606 160.178 324.715C157.91 323.824 156.02 325.633 156.033 328.05Z" fill="#EBB376"/>
<path d="M172.921 328.361C172.732 329.036 172.921 329.711 173.38 329.805C173.839 329.9 174.325 329.508 174.528 328.833C174.73 328.158 174.528 327.483 174.055 327.402C173.583 327.321 173.11 327.686 172.921 328.361Z" fill="#263238"/>
<path d="M180.468 330.75C180.279 331.425 180.468 332.1 180.927 332.181C181.386 332.262 181.872 331.884 182.074 331.209C182.277 330.534 182.074 329.859 181.602 329.778C181.129 329.697 180.67 330.115 180.468 330.75Z" fill="#263238"/>
<path d="M177.971 330.358C178.187 332.666 178.705 334.935 179.51 337.108C178.952 337.291 178.362 337.351 177.779 337.284C177.196 337.216 176.635 337.023 176.135 336.717L177.971 330.358Z" fill="#D58745"/>
<path d="M171.301 325.147C171.233 325.135 171.169 325.107 171.112 325.066C171.037 324.988 170.995 324.884 170.995 324.776C170.995 324.668 171.037 324.564 171.112 324.486C171.629 324.083 172.235 323.811 172.879 323.693C173.523 323.576 174.186 323.616 174.812 323.811C174.861 323.83 174.907 323.859 174.945 323.896C174.984 323.933 175.014 323.978 175.036 324.026C175.057 324.075 175.068 324.128 175.069 324.181C175.07 324.235 175.061 324.288 175.041 324.337C175.022 324.387 174.993 324.433 174.956 324.471C174.919 324.51 174.874 324.54 174.825 324.562C174.777 324.583 174.724 324.594 174.67 324.595C174.617 324.596 174.564 324.587 174.514 324.567C174.029 324.415 173.515 324.382 173.014 324.471C172.513 324.56 172.042 324.769 171.639 325.08C171.593 325.118 171.538 325.144 171.479 325.156C171.42 325.168 171.359 325.165 171.301 325.147Z" fill="#263238"/>
<path d="M184.451 329.224C184.39 329.195 184.338 329.151 184.298 329.097C184.258 329.043 184.232 328.98 184.221 328.914C184.149 328.393 183.958 327.896 183.663 327.46C183.368 327.025 182.977 326.663 182.52 326.403C182.429 326.34 182.366 326.244 182.346 326.135C182.326 326.026 182.35 325.914 182.412 325.822C182.461 325.749 182.532 325.694 182.614 325.665C182.697 325.636 182.787 325.634 182.871 325.66C183.448 325.976 183.943 326.422 184.316 326.964C184.689 327.506 184.929 328.127 185.018 328.779C185.027 328.831 185.027 328.885 185.016 328.937C185.005 328.989 184.983 329.038 184.953 329.082C184.923 329.126 184.885 329.164 184.84 329.193C184.796 329.222 184.746 329.242 184.693 329.251C184.612 329.263 184.528 329.253 184.451 329.224Z" fill="#263238"/>
<path d="M172.328 339.012C172.703 339.121 173.087 339.198 173.475 339.241C173.534 339.254 173.595 339.242 173.646 339.209C173.696 339.176 173.732 339.125 173.745 339.066C173.749 339.035 173.746 339.003 173.737 338.973C173.728 338.943 173.713 338.915 173.693 338.891C173.672 338.867 173.647 338.847 173.619 338.833C173.591 338.819 173.56 338.811 173.529 338.809C172.55 338.701 171.61 338.367 170.783 337.833C169.956 337.299 169.265 336.579 168.764 335.731C168.751 335.704 168.732 335.679 168.709 335.658C168.687 335.638 168.66 335.622 168.631 335.612C168.602 335.602 168.571 335.598 168.541 335.6C168.51 335.602 168.48 335.61 168.453 335.623C168.424 335.635 168.398 335.652 168.376 335.675C168.354 335.697 168.338 335.724 168.327 335.754C168.317 335.783 168.313 335.815 168.316 335.846C168.319 335.877 168.329 335.907 168.345 335.934C168.769 336.688 169.34 337.349 170.024 337.877C170.708 338.406 171.491 338.792 172.328 339.012Z" fill="#263238"/>
<path d="M159.219 313.564C158.273 313.33 157.406 312.847 156.708 312.166C156.011 311.485 155.507 310.63 155.25 309.69C155.192 309.513 155.082 309.357 154.935 309.243C154.787 309.128 154.609 309.061 154.423 309.05C154.236 309.038 154.051 309.082 153.891 309.177C153.73 309.272 153.602 309.413 153.522 309.582C152.375 312.025 151.848 315.4 159.219 313.564Z" fill="#2E353A"/>
<path d="M216.27 323.892H212.395C210.744 323.92 209.16 324.552 207.944 325.669C206.727 326.786 205.962 328.31 205.794 329.953L202.432 367.753C202.337 368.526 202.409 369.311 202.645 370.053C202.881 370.796 203.275 371.478 203.799 372.054C204.324 372.63 204.967 373.085 205.684 373.389C206.401 373.693 207.175 373.838 207.954 373.815H211.828L216.27 323.892Z" fill="#6558C0"/>
<path opacity="0.3" d="M216.27 323.892H212.395C210.744 323.92 209.16 324.552 207.944 325.669C206.727 326.786 205.962 328.31 205.794 329.953L202.432 367.753C202.337 368.526 202.409 369.311 202.645 370.053C202.881 370.796 203.275 371.478 203.799 372.054C204.324 372.63 204.967 373.085 205.684 373.389C206.401 373.693 207.175 373.838 207.954 373.815H211.828L216.27 323.892Z" fill="white"/>
<path d="M273.753 373.842H210.6C209.821 373.865 209.047 373.72 208.33 373.416C207.613 373.112 206.97 372.657 206.445 372.081C205.921 371.505 205.527 370.823 205.291 370.08C205.055 369.338 204.983 368.553 205.079 367.78L208.44 329.98C208.608 328.337 209.373 326.813 210.59 325.696C211.806 324.579 213.39 323.947 215.041 323.919H278.195C278.973 323.896 279.747 324.041 280.465 324.345C281.182 324.649 281.825 325.104 282.349 325.68C282.874 326.256 283.267 326.938 283.503 327.681C283.739 328.423 283.812 329.207 283.716 329.98L280.354 367.78C280.186 369.423 279.421 370.948 278.205 372.065C276.988 373.182 275.404 373.814 273.753 373.842Z" fill="#6558C0"/>
<path opacity="0.2" d="M273.753 373.842H210.6C209.821 373.865 209.047 373.72 208.33 373.416C207.613 373.112 206.97 372.657 206.445 372.081C205.921 371.505 205.527 370.823 205.291 370.08C205.055 369.338 204.983 368.553 205.079 367.78L208.44 329.98C208.608 328.337 209.373 326.813 210.59 325.696C211.806 324.579 213.39 323.947 215.041 323.919H278.195C278.973 323.896 279.747 324.041 280.465 324.345C281.182 324.649 281.825 325.104 282.349 325.68C282.874 326.256 283.267 326.938 283.503 327.681C283.739 328.423 283.812 329.207 283.716 329.98L280.354 367.78C280.186 369.423 279.421 370.948 278.205 372.065C276.988 373.182 275.404 373.814 273.753 373.842Z" fill="black"/>
<path opacity="0.5" d="M245.511 345.209C245.514 344.893 245.56 344.58 245.646 344.277C245.242 344.159 244.825 344.095 244.404 344.088C243.459 344.088 242.535 344.368 241.749 344.893C240.963 345.419 240.35 346.165 239.989 347.038C239.627 347.911 239.532 348.872 239.717 349.799C239.901 350.726 240.356 351.578 241.025 352.246C241.693 352.915 242.545 353.37 243.472 353.554C244.399 353.739 245.36 353.644 246.233 353.282C247.106 352.921 247.852 352.308 248.378 351.522C248.903 350.736 249.183 349.812 249.183 348.867C248.701 348.869 248.224 348.775 247.779 348.592C247.333 348.409 246.928 348.14 246.587 347.8C246.246 347.46 245.975 347.056 245.791 346.612C245.606 346.167 245.511 345.69 245.511 345.209Z" fill="white"/>
<path d="M241.515 391.972H246.375L244.458 369.994C244.404 369.39 244.126 368.828 243.679 368.419C243.232 368.009 242.648 367.781 242.041 367.78C241.706 367.779 241.373 367.848 241.066 367.983C240.758 368.117 240.482 368.315 240.256 368.563C240.029 368.811 239.857 369.104 239.751 369.423C239.645 369.741 239.606 370.079 239.638 370.413L241.515 391.972Z" fill="#263238"/>
<path opacity="0.3" d="M241.515 391.972H246.375L244.458 369.994C244.404 369.39 244.126 368.828 243.679 368.419C243.232 368.009 242.648 367.781 242.041 367.78C241.706 367.779 241.373 367.848 241.066 367.983C240.758 368.117 240.482 368.315 240.256 368.563C240.029 368.811 239.857 369.104 239.751 369.423C239.645 369.741 239.606 370.079 239.638 370.413L241.515 391.972Z" fill="white"/>
<path d="M256.864 398.358C256.92 396.649 256.631 394.946 256.016 393.35C255.4 391.754 254.47 390.299 253.28 389.07C252.091 387.841 250.666 386.864 249.092 386.197C247.517 385.529 245.824 385.186 244.114 385.186C242.403 385.186 240.711 385.529 239.136 386.197C237.561 386.864 236.137 387.841 234.947 389.07C233.758 390.299 232.828 391.754 232.212 393.35C231.596 394.946 231.307 396.649 231.363 398.358H256.864Z" fill="#6558C0"/>
<path opacity="0.5" d="M256.864 398.358C256.92 396.649 256.631 394.946 256.016 393.35C255.4 391.754 254.47 390.299 253.28 389.07C252.091 387.841 250.666 386.864 249.092 386.197C247.517 385.529 245.824 385.186 244.114 385.186C242.403 385.186 240.711 385.529 239.136 386.197C237.561 386.864 236.137 387.841 234.947 389.07C233.758 390.299 232.828 391.754 232.212 393.35C231.596 394.946 231.307 396.649 231.363 398.358H256.864Z" fill="white"/>
<path d="M226.908 398.358H206.766C206.127 398.354 205.516 398.098 205.066 397.645C204.616 397.193 204.363 396.58 204.363 395.941C204.363 395.304 204.616 394.693 205.067 394.242C205.517 393.792 206.129 393.538 206.766 393.538H226.908C227.545 393.538 228.157 393.792 228.607 394.242C229.058 394.693 229.311 395.304 229.311 395.941C229.311 396.58 229.058 397.193 228.608 397.645C228.158 398.098 227.547 398.354 226.908 398.358Z" fill="#6558C0"/>
<path opacity="0.3" d="M226.908 398.358H206.766C206.127 398.354 205.516 398.098 205.066 397.645C204.616 397.193 204.363 396.58 204.363 395.941C204.363 395.304 204.616 394.693 205.067 394.242C205.517 393.792 206.129 393.538 206.766 393.538H226.908C227.545 393.538 228.157 393.792 228.607 394.242C229.058 394.693 229.311 395.304 229.311 395.941C229.311 396.58 229.058 397.193 228.608 397.645C228.158 398.098 227.547 398.354 226.908 398.358Z" fill="white"/>
<path d="M208.008 398.358H187.879C187.563 398.358 187.249 398.295 186.957 398.174C186.664 398.052 186.399 397.874 186.176 397.649C185.952 397.425 185.775 397.158 185.656 396.865C185.536 396.572 185.475 396.258 185.476 395.941C185.476 395.304 185.73 394.693 186.18 394.242C186.631 393.792 187.242 393.538 187.879 393.538H208.008C208.647 393.538 209.259 393.791 209.712 394.241C210.165 394.692 210.421 395.303 210.424 395.941C210.424 396.259 210.362 396.573 210.241 396.866C210.119 397.159 209.941 397.426 209.717 397.65C209.492 397.875 209.226 398.053 208.933 398.174C208.64 398.295 208.325 398.358 208.008 398.358Z" fill="#6558C0"/>
<path opacity="0.5" d="M208.008 398.358H187.879C187.563 398.358 187.249 398.295 186.957 398.174C186.664 398.052 186.399 397.874 186.176 397.649C185.952 397.425 185.775 397.158 185.656 396.865C185.536 396.572 185.475 396.258 185.476 395.941C185.476 395.304 185.73 394.693 186.18 394.242C186.631 393.792 187.242 393.538 187.879 393.538H208.008C208.647 393.538 209.259 393.791 209.712 394.241C210.165 394.692 210.421 395.303 210.424 395.941C210.424 396.259 210.362 396.573 210.241 396.866C210.119 397.159 209.941 397.426 209.717 397.65C209.492 397.875 209.226 398.053 208.933 398.174C208.64 398.295 208.325 398.358 208.008 398.358Z" fill="white"/>
<path d="M376.529 373.747C375.911 373.732 375.302 373.886 374.766 374.194C374.231 374.501 373.79 374.949 373.491 375.489C358.972 399.828 353.754 428.601 358.803 456.489C358.883 457.192 359.211 457.843 359.728 458.326C360.245 458.809 360.918 459.091 361.625 459.121C363.825 459.27 403.002 459.121 404.42 459.121C404.999 459.133 405.574 459.017 406.104 458.781C406.634 458.546 407.106 458.197 407.486 457.759C407.866 457.321 408.145 456.805 408.303 456.247C408.461 455.69 408.495 455.104 408.402 454.532C403.833 428.566 408.784 401.823 422.348 379.215C422.661 378.653 422.82 378.018 422.808 377.375C422.795 376.731 422.612 376.103 422.277 375.553C421.942 375.004 421.467 374.553 420.901 374.248C420.334 373.943 419.697 373.793 419.054 373.815C417.92 373.72 379.026 373.788 376.529 373.747Z" fill="#6558C0"/>
<path opacity="0.2" d="M376.529 373.747C375.911 373.732 375.302 373.886 374.766 374.194C374.231 374.501 373.79 374.949 373.491 375.489C358.972 399.828 353.754 428.601 358.803 456.489C358.883 457.192 359.211 457.843 359.728 458.326C360.245 458.809 360.918 459.091 361.625 459.121C363.825 459.27 403.002 459.121 404.42 459.121C404.999 459.133 405.574 459.017 406.104 458.781C406.634 458.546 407.106 458.197 407.486 457.759C407.866 457.321 408.145 456.805 408.303 456.247C408.461 455.69 408.495 455.104 408.402 454.532C403.833 428.566 408.784 401.823 422.348 379.215C422.661 378.653 422.82 378.018 422.808 377.375C422.795 376.731 422.612 376.103 422.277 375.553C421.942 375.004 421.467 374.553 420.901 374.248C420.334 373.943 419.697 373.793 419.054 373.815C417.92 373.72 379.026 373.788 376.529 373.747Z" fill="black"/>
<path d="M408.402 454.504C403.833 428.539 408.785 401.796 422.348 379.188C424.791 375.138 418.446 371.452 416.016 375.489C401.5 399.83 396.287 428.603 401.342 456.489C402.179 461.119 409.239 459.189 408.402 454.545V454.504Z" fill="#6558C0"/>
<g opacity="0.2">
<path opacity="0.2" d="M408.402 454.504C403.833 428.539 408.785 401.796 422.348 379.188C424.791 375.138 418.446 371.452 416.016 375.489C401.5 399.83 396.287 428.603 401.342 456.489C402.179 461.119 409.239 459.189 408.402 454.545V454.504Z" fill="white"/>
</g>
<path d="M384.386 556.2L350.366 543.672L315.968 556.214C315.691 556.313 315.396 556.344 315.105 556.306C314.814 556.267 314.536 556.159 314.296 555.991C314.055 555.824 313.858 555.6 313.722 555.341C313.585 555.081 313.513 554.792 313.51 554.499C313.511 554.151 313.612 553.81 313.801 553.518C313.99 553.226 314.26 552.995 314.577 552.852L350.366 536.247L385.789 552.839C386.1 552.988 386.362 553.222 386.546 553.513C386.729 553.804 386.828 554.141 386.829 554.486C386.829 554.778 386.759 555.067 386.624 555.327C386.489 555.587 386.293 555.81 386.053 555.978C385.814 556.147 385.537 556.255 385.246 556.293C384.956 556.332 384.661 556.3 384.386 556.2Z" fill="#263238"/>
<path opacity="0.3" d="M384.386 556.2L350.366 543.672L315.968 556.214C315.691 556.313 315.396 556.344 315.105 556.306C314.814 556.267 314.536 556.159 314.296 555.991C314.055 555.824 313.858 555.6 313.722 555.341C313.585 555.081 313.513 554.792 313.51 554.499C313.511 554.151 313.612 553.81 313.801 553.518C313.99 553.226 314.26 552.995 314.577 552.852L350.366 536.247L385.789 552.839C386.1 552.988 386.362 553.222 386.546 553.513C386.729 553.804 386.828 554.141 386.829 554.486C386.829 554.778 386.759 555.067 386.624 555.327C386.489 555.587 386.293 555.81 386.053 555.978C385.814 556.147 385.537 556.255 385.246 556.293C384.956 556.332 384.661 556.3 384.386 556.2Z" fill="white"/>
<path opacity="0.2" d="M342.346 546.642L350.365 543.726L358.006 546.534V539.878L350.365 536.287L342.346 540.014V546.642Z" fill="black"/>
<path d="M350.177 556.537C349.43 556.538 348.709 556.263 348.154 555.765C347.598 555.266 347.246 554.58 347.166 553.837L346.208 543.753V460.053H354.146V543.753L353.187 553.837C353.107 554.58 352.755 555.266 352.2 555.765C351.644 556.263 350.923 556.538 350.177 556.537Z" fill="#263238"/>
<path opacity="0.3" d="M350.177 556.537C349.43 556.538 348.709 556.263 348.154 555.765C347.598 555.266 347.246 554.58 347.166 553.837L346.208 543.753V460.053H354.146V543.753L353.187 553.837C353.107 554.58 352.755 555.266 352.2 555.765C351.644 556.263 350.923 556.538 350.177 556.537Z" fill="white"/>
<path opacity="0.2" d="M354.146 459.999H346.208V469.746H354.146V459.999Z" fill="black"/>
<path d="M287.469 452.371C296.453 450.097 305.663 448.829 314.928 448.592C324.459 448.362 360.153 448.592 368.631 448.592C378.965 448.585 389.26 449.869 399.276 452.412C405.567 454.018 403.623 463.104 397.926 463.212C397.427 463.212 289.534 463.212 289.143 463.212C283.203 463.428 281.043 454.018 287.469 452.371Z" fill="#6558C0"/>
<path opacity="0.3" d="M287.469 452.371C296.453 450.097 305.663 448.829 314.928 448.592C324.459 448.362 360.153 448.592 368.631 448.592C378.965 448.585 389.26 449.869 399.276 452.412C405.567 454.018 403.623 463.104 397.926 463.212C397.427 463.212 289.534 463.212 289.143 463.212C283.203 463.428 281.043 454.018 287.469 452.371Z" fill="black"/>
<path d="M396.36 462.969C378.162 458.352 359.1 458.352 340.902 462.969C334.058 464.724 331.128 454.126 337.986 452.371C358.097 447.269 379.165 447.269 399.276 452.371C406.12 454.126 403.218 464.724 396.36 462.969Z" fill="#6558C0"/>
<g opacity="0.3">
<path opacity="0.3" d="M396.36 462.969C378.162 458.352 359.1 458.352 340.902 462.969C334.058 464.724 331.128 454.126 337.986 452.371C358.097 447.269 379.165 447.269 399.276 452.371C406.12 454.126 403.218 464.724 396.36 462.969Z" fill="white"/>
</g>
<path d="M344.034 328.752C344.034 328.752 337.392 328.104 339.457 318.235C341.523 308.367 341.347 298.998 356.008 300.065C356.008 300.065 367.618 297.162 370.858 308.07C374.098 318.978 378.958 326.713 371.236 329.926C361.516 333.976 359.086 325.012 359.086 325.012L344.871 326.362L344.034 328.752Z" fill="#263238"/>
<path d="M341.861 343.197C333.45 341.995 337.5 371.25 329.954 376.65C325.782 379.539 304.803 371.777 304.803 371.777L301.846 362.327C301.773 362.085 301.646 361.862 301.476 361.675C301.305 361.488 301.095 361.342 300.861 361.246L296.487 359.505C296.199 359.4 295.888 359.374 295.586 359.431C295.285 359.488 295.004 359.626 294.775 359.829C294.545 360.032 294.375 360.294 294.282 360.586C294.188 360.879 294.176 361.191 294.246 361.489L295.825 368.469C295.892 368.774 296.041 369.054 296.257 369.279L302.346 375.745C302.346 375.745 327.362 387.896 333.396 385.857C340.47 383.521 343.089 370.642 344.844 362.974C346.221 357.169 348.3 344.115 341.861 343.197Z" fill="#B97964"/>
<path d="M332.087 518.495L334.638 538.218L327.456 538.407L322.286 519.372L332.087 518.495Z" fill="#B97964"/>
<path d="M327.361 537.3H335.556C335.728 537.304 335.894 537.364 336.028 537.471C336.162 537.579 336.257 537.727 336.299 537.894L337.973 545.562C338.01 545.722 338.016 545.889 337.989 546.052C337.961 546.214 337.902 546.37 337.814 546.509C337.726 546.649 337.611 546.769 337.476 546.864C337.341 546.959 337.189 547.025 337.027 547.06C336.938 547.074 336.847 547.074 336.757 547.06C333.369 547.06 330.358 546.79 326.133 546.79C321.151 546.79 322.407 547.384 316.548 547.452C313.024 547.452 312.39 543.469 313.848 543.28C320.706 542.43 322.65 540.364 325.296 537.881C325.888 537.435 326.625 537.228 327.361 537.3Z" fill="#263238"/>
<path opacity="0.1" d="M325.283 530.415L322.286 519.372L332.086 518.495L333.558 529.889L325.283 530.415Z" fill="black"/>
<path d="M356.805 400.086H345.209C343.295 405.305 342.065 410.751 341.55 416.286C340.943 424.521 356.805 418.419 356.805 418.419L358.155 407.133L356.805 400.086Z" fill="#263238"/>
<path d="M282.947 491.17L275.306 513.459L268.893 511.623L274.091 488.12L282.947 491.17Z" fill="#B97964"/>
<path d="M269.015 509.908L276.899 512.298C277.065 512.341 277.212 512.439 277.315 512.576C277.418 512.714 277.471 512.882 277.466 513.054L277.169 520.884C277.165 521.055 277.127 521.223 277.057 521.379C276.986 521.535 276.885 521.674 276.758 521.789C276.632 521.904 276.483 521.992 276.322 522.048C276.16 522.103 275.989 522.125 275.819 522.112C275.734 522.125 275.647 522.125 275.562 522.112C272.295 521.194 269.42 520.263 265.329 519.196C260.51 517.941 261.576 518.832 255.879 517.428C252.45 516.591 252.842 512.541 254.34 512.73C261.185 513.621 263.615 511.798 266.787 510.097C267.479 509.756 268.275 509.689 269.015 509.908Z" fill="#263238"/>
<path opacity="0.1" d="M278.775 503.32L271.161 501.363L274.091 488.12L282.946 491.17L278.775 503.32Z" fill="black"/>
<path d="M379.917 399.033C379.917 399.033 391.716 418.77 389.677 435.253C387.639 451.737 372.397 460.458 313.794 432.378C313.794 432.378 301.766 444.825 281.826 498.136L271.647 495.086C271.647 495.086 283.149 433.458 293.423 415.921C303.696 398.385 349.38 418.972 352.823 415.516C355.901 412.438 353.227 400.261 353.227 400.261L379.917 399.033Z" fill="#263238"/>
<path d="M284.31 497.124L282.177 501.241L269.973 497.124V492.399L284.31 497.124Z" fill="#6558C0"/>
<path d="M384.669 346.275L343.143 343.17C342.551 343.121 341.956 343.204 341.399 343.411C340.843 343.618 340.338 343.945 339.922 344.369C339.506 344.793 339.188 345.303 338.991 345.863C338.794 346.424 338.723 347.02 338.783 347.611C339.182 349.914 339.417 352.242 339.485 354.577C339.12 358.978 336.785 365.566 337.541 368.577C338.175 370.98 340.7 373.707 341.699 376.42C343.872 382.293 344.237 401.314 344.237 401.314C357.656 403.488 381.537 400.261 381.537 400.261C376.137 380.943 384.237 358.411 386.654 349.042C386.733 348.728 386.743 348.4 386.683 348.081C386.623 347.763 386.493 347.461 386.304 347.197C386.115 346.934 385.871 346.715 385.589 346.555C385.306 346.396 384.992 346.3 384.669 346.275Z" fill="#6558C0"/>
<path opacity="0.7" d="M384.669 346.275L343.143 343.17C342.551 343.121 341.956 343.204 341.399 343.411C340.843 343.618 340.338 343.945 339.922 344.369C339.506 344.793 339.188 345.303 338.991 345.863C338.794 346.424 338.723 347.02 338.783 347.611C339.182 349.914 339.417 352.242 339.485 354.577C339.12 358.978 336.785 365.566 337.541 368.577C338.175 370.98 340.7 373.707 341.699 376.42C343.872 382.293 344.237 401.314 344.237 401.314C357.656 403.488 381.537 400.261 381.537 400.261C376.137 380.943 384.237 358.411 386.654 349.042C386.733 348.728 386.743 348.4 386.683 348.081C386.623 347.763 386.493 347.461 386.304 347.197C386.115 346.934 385.871 346.715 385.589 346.555C385.306 346.396 384.992 346.3 384.669 346.275Z" fill="white"/>
<path opacity="0.1" d="M378.486 369.09L364.136 383.778L343.683 387.895H343.548C343.737 390.15 343.872 392.418 343.98 394.416C349.636 394.416 368.118 394.024 373.451 389.38C376.145 386.805 378.346 383.757 379.944 380.389C380.198 377.093 380.626 373.813 381.227 370.561L378.486 369.09Z" fill="black"/>
<path opacity="0.2" d="M307.098 437.913L303.898 435.429C303.898 435.429 292.599 441.544 298.215 458.959C301.218 452.578 304.548 446.355 308.191 440.316L307.098 437.913Z" fill="black"/>
<path d="M356.049 448.591C345.398 446.04 331.614 440.923 313.794 432.391C313.794 432.391 300.038 432.58 299.12 442.8C298.202 453.019 322.326 523.8 322.326 523.8L333.464 522.842C333.464 522.842 326.903 452.317 325.364 448.659L356.049 448.591Z" fill="#263238"/>
<path opacity="0.2" d="M313.794 432.378C312.2 432.439 310.616 432.665 309.069 433.053C316.542 439.437 324.922 444.674 333.936 448.591H356.049C345.398 446.04 331.614 440.923 313.794 432.378Z" fill="black"/>
<path d="M334.8 520.938L335.097 525.514L322.124 526.527L320.288 522.18L334.8 520.938Z" fill="#6558C0"/>
<path d="M365.067 326.943L356.009 335.839C357.521 343.156 352.161 343.845 352.161 343.845C352.161 343.845 352.593 346.423 359.154 346.072C362.091 346.041 365.015 345.687 367.875 345.019C363.92 341.86 364.5 332.235 365.067 326.943Z" fill="#B97964"/>
<path opacity="0.1" d="M356.089 339.971C356.358 338.604 356.33 337.195 356.008 335.84L364.108 327.901L364.892 328.82C364.892 328.82 363.258 338.945 356.089 339.971Z" fill="black"/>
<path d="M365.85 315.158C366.511 323.879 366.984 327.564 363.231 332.6C357.575 340.2 346.721 339.107 343.454 330.75C340.524 323.231 339.93 310.23 347.922 305.613C349.68 304.591 351.67 304.034 353.704 303.996C355.738 303.957 357.747 304.439 359.543 305.395C361.338 306.351 362.86 307.749 363.964 309.458C365.067 311.166 365.717 313.128 365.85 315.158Z" fill="#B97964"/>
<path d="M348.017 324C347.613 325.699 346.977 327.334 346.127 328.86C346.522 329.066 346.957 329.183 347.402 329.204C347.848 329.225 348.292 329.149 348.705 328.981L348.017 324Z" fill="#A24E3F"/>
<path d="M354.618 318.019C354.675 318.001 354.726 317.969 354.767 317.925C354.799 317.893 354.825 317.856 354.843 317.814C354.861 317.772 354.87 317.727 354.87 317.682C354.87 317.637 354.861 317.592 354.843 317.55C354.825 317.508 354.799 317.47 354.767 317.439C354.277 317.01 353.692 316.704 353.06 316.549C352.428 316.394 351.767 316.394 351.135 316.548C351.047 316.573 350.973 316.632 350.929 316.712C350.885 316.791 350.874 316.885 350.899 316.973C350.924 317.061 350.983 317.135 351.063 317.179C351.142 317.224 351.236 317.235 351.324 317.209C351.849 317.092 352.394 317.1 352.915 317.234C353.436 317.368 353.918 317.623 354.321 317.979C354.364 318.008 354.413 318.027 354.465 318.034C354.516 318.041 354.569 318.036 354.618 318.019Z" fill="#2E353A"/>
<path d="M341.725 319.221C341.782 319.203 341.833 319.17 341.874 319.126C342.22 318.72 342.657 318.4 343.15 318.194C343.642 317.988 344.176 317.9 344.709 317.938C344.799 317.948 344.89 317.924 344.964 317.872C345.039 317.82 345.092 317.743 345.114 317.655C345.122 317.562 345.094 317.47 345.036 317.398C344.979 317.325 344.895 317.277 344.803 317.263C344.156 317.205 343.504 317.303 342.902 317.55C342.301 317.797 341.767 318.185 341.347 318.681C341.315 318.712 341.289 318.75 341.271 318.792C341.253 318.834 341.244 318.879 341.244 318.924C341.244 318.969 341.253 319.014 341.271 319.056C341.289 319.098 341.315 319.136 341.347 319.167C341.397 319.214 341.459 319.245 341.526 319.257C341.594 319.269 341.663 319.261 341.725 319.234V319.221Z" fill="#2E353A"/>
<path d="M352.822 322.123C352.93 322.825 352.633 323.473 352.161 323.473C351.688 323.473 351.256 323.028 351.162 322.312C351.067 321.597 351.364 320.962 351.823 320.962C352.282 320.962 352.728 321.421 352.822 322.123Z" fill="#2E353A"/>
<path d="M344.857 323.23C344.965 323.932 344.668 324.58 344.209 324.58C343.75 324.58 343.305 324.121 343.197 323.419C343.089 322.717 343.4 322.069 343.859 322.069C344.318 322.069 344.776 322.515 344.857 323.23Z" fill="#2E353A"/>
<path d="M344.061 322.083L342.306 321.826C342.306 321.826 343.359 323.028 344.061 322.083Z" fill="#2E353A"/>
<path d="M352.026 320.976L350.271 320.733C350.271 320.733 351.324 321.921 352.026 320.976Z" fill="#2E353A"/>
<path d="M353.39 329.265C353.528 329.019 353.646 328.761 353.741 328.495C353.75 328.476 353.755 328.455 353.755 328.433C353.756 328.412 353.753 328.391 353.745 328.371C353.738 328.35 353.726 328.332 353.712 328.316C353.697 328.301 353.679 328.288 353.66 328.279C353.638 328.271 353.616 328.267 353.593 328.268C353.57 328.269 353.548 328.275 353.527 328.285C353.507 328.295 353.489 328.31 353.475 328.327C353.46 328.345 353.45 328.365 353.444 328.387C353.202 329.065 352.805 329.677 352.284 330.174C351.764 330.671 351.135 331.039 350.447 331.249C350.402 331.259 350.363 331.286 350.338 331.324C350.313 331.361 350.304 331.407 350.312 331.452C350.316 331.474 350.325 331.494 350.338 331.512C350.351 331.53 350.368 331.545 350.387 331.557C350.406 331.568 350.427 331.575 350.449 331.578C350.47 331.581 350.493 331.58 350.514 331.573C351.123 331.4 351.692 331.107 352.186 330.71C352.679 330.314 353.089 329.822 353.39 329.265Z" fill="#263238"/>
<path d="M359.1 302.4C353.498 301.05 347.693 303.939 347.693 303.939C347.693 303.939 341.213 309.703 342.698 315.279C343.382 314.774 344.156 314.403 344.979 314.185C344.753 312.072 345.342 309.953 346.626 308.259C346.28 310.097 346.353 311.989 346.842 313.794C349.547 313.527 352.279 313.849 354.848 314.739C354.848 314.739 355.968 312.43 354.848 307.422C356.311 310.033 357.082 312.974 357.089 315.967C357.156 321.151 363.839 322.407 363.839 322.407C363.839 322.407 368.01 321.961 367.97 316.372C367.929 310.783 364.703 303.844 359.1 302.4Z" fill="#263238"/>
<path d="M356.63 302.116C356.63 302.116 353.93 295.555 348.705 297.162C343.48 298.768 352.661 298.755 356.63 302.116Z" fill="#263238"/>
<path d="M368.82 321.719C368.692 322.547 368.402 323.341 367.966 324.057C367.531 324.773 366.959 325.396 366.282 325.89C364.46 327.24 362.785 325.755 362.637 323.635C362.515 321.732 363.312 318.749 365.459 318.236C365.926 318.147 366.409 318.176 366.863 318.319C367.317 318.462 367.729 318.715 368.062 319.056C368.395 319.397 368.638 319.814 368.77 320.272C368.902 320.729 368.92 321.212 368.82 321.678V321.719Z" fill="#B97964"/>
<path d="M385.196 346.086C381.065 344.736 375.408 360.49 373.046 365.404C372.074 367.443 370.508 372.006 369.32 375.61C368.826 377.152 367.961 378.548 366.801 379.676C365.64 380.804 364.219 381.628 362.664 382.077L340.538 388.354L331.547 385.654C331.214 385.553 330.862 385.529 330.519 385.582C330.175 385.636 329.848 385.767 329.562 385.965L325.04 389.043C324.709 389.27 324.439 389.574 324.253 389.93C324.067 390.285 323.971 390.68 323.973 391.081C323.967 391.414 324.03 391.745 324.158 392.053C324.286 392.36 324.477 392.638 324.718 392.867C324.959 393.097 325.246 393.274 325.559 393.387C325.872 393.501 326.206 393.547 326.538 393.525L339.903 392.472C339.903 392.472 361.503 393.727 370.953 388.422C380.403 383.116 392.364 348.543 385.196 346.086Z" fill="#B97964"/>
<path d="M367.97 393.579H291.29C290.735 393.579 290.202 393.799 289.81 394.192C289.417 394.584 289.197 395.116 289.197 395.671C289.197 396.226 289.417 396.759 289.81 397.151C290.202 397.543 290.735 397.764 291.29 397.764H367.97C368.525 397.764 369.057 397.543 369.449 397.151C369.842 396.759 370.062 396.226 370.062 395.671C370.062 395.116 369.842 394.584 369.449 394.192C369.057 393.799 368.525 393.579 367.97 393.579Z" fill="#263238"/>
<path opacity="0.3" d="M367.97 393.579H291.29C290.735 393.579 290.202 393.799 289.81 394.192C289.417 394.584 289.197 395.116 289.197 395.671C289.197 396.226 289.417 396.759 289.81 397.151C290.202 397.543 290.735 397.764 291.29 397.764H367.97C368.525 397.764 369.057 397.543 369.449 397.151C369.842 396.759 370.062 396.226 370.062 395.671C370.062 395.116 369.842 394.584 369.449 394.192C369.057 393.799 368.525 393.579 367.97 393.579Z" fill="white"/>
<path d="M292.424 396.481H318.6C318.762 396.484 318.923 396.447 319.067 396.372C319.211 396.298 319.335 396.189 319.427 396.056C319.519 395.922 319.577 395.768 319.595 395.607C319.613 395.445 319.592 395.282 319.531 395.131L305.195 354.105C305.001 353.546 304.636 353.062 304.151 352.722C303.666 352.383 303.086 352.205 302.495 352.215H276.318C276.157 352.216 275.998 352.255 275.856 352.33C275.713 352.405 275.591 352.514 275.5 352.647C275.408 352.779 275.35 352.932 275.33 353.092C275.311 353.252 275.33 353.414 275.387 353.565L289.764 394.632C289.962 395.177 290.324 395.648 290.8 395.979C291.276 396.31 291.843 396.486 292.424 396.481Z" fill="#263238"/>
<path opacity="0.5" d="M292.424 396.481H318.6C318.762 396.484 318.923 396.447 319.067 396.372C319.211 396.298 319.335 396.189 319.427 396.056C319.519 395.922 319.577 395.768 319.595 395.607C319.613 395.445 319.592 395.282 319.531 395.131L305.195 354.105C305.001 353.546 304.636 353.062 304.151 352.722C303.666 352.383 303.086 352.205 302.495 352.215H276.318C276.157 352.216 275.998 352.255 275.856 352.33C275.713 352.405 275.591 352.514 275.5 352.647C275.408 352.779 275.35 352.932 275.33 353.092C275.311 353.252 275.33 353.414 275.387 353.565L289.764 394.632C289.962 395.177 290.324 395.648 290.8 395.979C291.276 396.31 291.843 396.486 292.424 396.481Z" fill="white"/>
<path d="M291.155 396.481H317.372C317.534 396.484 317.694 396.447 317.838 396.372C317.983 396.298 318.106 396.189 318.199 396.056C318.291 395.922 318.349 395.768 318.367 395.607C318.385 395.445 318.363 395.282 318.303 395.131L303.939 354.105C303.742 353.548 303.376 353.066 302.892 352.727C302.408 352.388 301.83 352.209 301.239 352.215H275.063C274.9 352.213 274.74 352.251 274.596 352.326C274.452 352.4 274.327 352.508 274.234 352.641C274.141 352.774 274.082 352.928 274.062 353.089C274.041 353.25 274.061 353.413 274.118 353.565L288.495 394.605C288.69 395.154 289.051 395.629 289.527 395.965C290.003 396.301 290.572 396.482 291.155 396.481Z" fill="#263238"/>
<path d="M296.861 377.177C297.785 376.859 298.103 375.35 297.571 373.806C297.04 372.262 295.86 371.268 294.937 371.586C294.013 371.904 293.695 373.413 294.227 374.957C294.758 376.501 295.937 377.495 296.861 377.177Z" fill="white"/>
<path opacity="0.2" d="M322.002 397.764C321.447 397.764 320.915 397.543 320.522 397.151C320.13 396.759 319.91 396.226 319.91 395.671C319.91 395.116 320.13 394.584 320.522 394.192C320.915 393.799 321.447 393.579 322.002 393.579H367.902C368.457 393.579 368.989 393.799 369.382 394.192C369.774 394.584 369.995 395.116 369.995 395.671C369.995 396.226 369.774 396.759 369.382 397.151C368.989 397.543 368.457 397.764 367.902 397.764H322.002Z" fill="white"/>
<path d="M550.341 556.2C550.712 556.192 551.077 556.109 551.415 555.956C551.752 555.804 552.056 555.585 552.308 555.314C552.56 555.042 552.755 554.722 552.88 554.373C553.006 554.024 553.061 553.654 553.041 553.284L545.535 406.796H537.597L547.533 553.622C547.565 554.335 547.878 555.008 548.404 555.491C548.93 555.974 549.627 556.229 550.341 556.2Z" fill="#263238"/>
<path opacity="0.5" d="M550.341 556.2C550.712 556.192 551.077 556.109 551.415 555.956C551.752 555.804 552.056 555.585 552.308 555.314C552.56 555.042 552.755 554.722 552.88 554.373C553.006 554.024 553.061 553.654 553.041 553.284L545.535 406.796H537.597L547.533 553.622C547.565 554.335 547.878 555.008 548.404 555.491C548.93 555.974 549.627 556.229 550.341 556.2Z" fill="white"/>
<path opacity="0.2" d="M545.589 406.85H537.651L538.312 416.61H546.089L545.589 406.85Z" fill="black"/>
<path d="M439.385 556.2C439.014 556.192 438.649 556.109 438.311 555.957C437.973 555.804 437.669 555.586 437.417 555.314C437.165 555.042 436.971 554.722 436.845 554.373C436.719 554.025 436.665 553.654 436.685 553.284L444.15 406.85H452.088L442.166 553.676C442.104 554.369 441.784 555.014 441.269 555.482C440.753 555.95 440.081 556.206 439.385 556.2Z" fill="#263238"/>
<path opacity="0.5" d="M439.385 556.2C439.014 556.192 438.649 556.109 438.311 555.957C437.973 555.804 437.669 555.586 437.417 555.314C437.165 555.042 436.971 554.722 436.845 554.373C436.719 554.025 436.665 553.654 436.685 553.284L444.15 406.85H452.088L442.166 553.676C442.104 554.369 441.784 555.014 441.269 555.482C440.753 555.95 440.081 556.206 439.385 556.2Z" fill="white"/>
<path opacity="0.2" d="M443.637 416.61H451.413L452.074 406.85H444.136L443.637 416.61Z" fill="black"/>
<path d="M262.737 556.2C263.108 556.192 263.473 556.109 263.811 555.956C264.149 555.804 264.452 555.586 264.704 555.314C264.956 555.042 265.151 554.722 265.277 554.373C265.402 554.025 265.457 553.654 265.437 553.284L257.985 406.85H250.047L259.97 553.676C260.03 554.367 260.349 555.01 260.861 555.477C261.374 555.945 262.043 556.203 262.737 556.2Z" fill="#263238"/>
<path opacity="0.5" d="M262.737 556.2C263.108 556.192 263.473 556.109 263.811 555.956C264.149 555.804 264.452 555.586 264.704 555.314C264.956 555.042 265.151 554.722 265.277 554.373C265.402 554.025 265.457 553.654 265.437 553.284L257.985 406.85H250.047L259.97 553.676C260.03 554.367 260.349 555.01 260.861 555.477C261.374 555.945 262.043 556.203 262.737 556.2Z" fill="white"/>
<path opacity="0.2" d="M257.985 406.85H250.047L250.709 416.61H258.484L257.985 406.85Z" fill="black"/>
<path d="M151.78 556.2C151.41 556.192 151.045 556.109 150.707 555.956C150.369 555.804 150.065 555.586 149.813 555.314C149.561 555.042 149.367 554.722 149.241 554.373C149.115 554.025 149.061 553.654 149.08 553.284L156.6 406.85H164.538L154.602 553.676C154.557 554.382 154.236 555.043 153.708 555.515C153.18 555.988 152.488 556.233 151.78 556.2Z" fill="#263238"/>
<path opacity="0.5" d="M151.78 556.2C151.41 556.192 151.045 556.109 150.707 555.956C150.369 555.804 150.065 555.586 149.813 555.314C149.561 555.042 149.367 554.722 149.241 554.373C149.115 554.025 149.061 553.654 149.08 553.284L156.6 406.85H164.538L154.602 553.676C154.557 554.382 154.236 555.043 153.708 555.515C153.18 555.988 152.488 556.233 151.78 556.2Z" fill="white"/>
<path opacity="0.2" d="M156.033 416.61H163.809L164.471 406.85H156.532L156.033 416.61Z" fill="black"/>
<path d="M551.975 402.206H148.878V406.85H551.975V402.206Z" fill="#263238"/>
<path opacity="0.3" d="M551.975 402.206H148.878V406.85H551.975V402.206Z" fill="white"/>
<path opacity="0.2" d="M551.974 402.206H436.482V406.85H551.974V402.206Z" fill="black"/>
<path d="M562.356 397.562H138.496V402.206H562.356V397.562Z" fill="#6558C0"/>
<path opacity="0.3" d="M562.356 397.562H426.101V402.206H562.356V397.562Z" fill="black"/>
<path d="M468.626 397.764H448.484C447.846 397.764 447.235 397.511 446.784 397.06C446.334 396.609 446.081 395.998 446.081 395.361C446.081 394.724 446.334 394.112 446.784 393.662C447.235 393.211 447.846 392.958 448.484 392.958H468.626C469.263 392.958 469.874 393.211 470.325 393.662C470.775 394.112 471.029 394.724 471.029 395.361C471.029 395.998 470.775 396.609 470.325 397.06C469.874 397.511 469.263 397.764 468.626 397.764Z" fill="#6558C0"/>
<path opacity="0.3" d="M468.626 397.764H448.484C447.846 397.764 447.235 397.511 446.784 397.06C446.334 396.609 446.081 395.998 446.081 395.361C446.081 394.724 446.334 394.112 446.784 393.662C447.235 393.211 447.846 392.958 448.484 392.958H468.626C469.263 392.958 469.874 393.211 470.325 393.662C470.775 394.112 471.029 394.724 471.029 395.361C471.029 395.998 470.775 396.609 470.325 397.06C469.874 397.511 469.263 397.764 468.626 397.764Z" fill="white"/>
<path d="M449.726 397.764H429.597C428.958 397.764 428.346 397.511 427.893 397.061C427.44 396.611 427.184 395.999 427.181 395.361C427.184 394.722 427.44 394.111 427.893 393.661C428.346 393.211 428.958 392.958 429.597 392.958H449.726C450.364 392.958 450.977 393.211 451.43 393.661C451.882 394.111 452.139 394.722 452.142 395.361C452.139 395.999 451.882 396.611 451.43 397.061C450.977 397.511 450.364 397.764 449.726 397.764Z" fill="#6558C0"/>
<path opacity="0.5" d="M449.726 397.764H429.597C428.958 397.764 428.346 397.511 427.893 397.061C427.44 396.611 427.184 395.999 427.181 395.361C427.184 394.722 427.44 394.111 427.893 393.661C428.346 393.211 428.958 392.958 429.597 392.958H449.726C450.364 392.958 450.977 393.211 451.43 393.661C451.882 394.111 452.139 394.722 452.142 395.361C452.139 395.999 451.882 396.611 451.43 397.061C450.977 397.511 450.364 397.764 449.726 397.764Z" fill="white"/>
<path d="M382.212 324.661H378.337C377.558 324.636 376.782 324.78 376.063 325.083C375.344 325.386 374.7 325.841 374.174 326.417C373.648 326.993 373.253 327.676 373.016 328.42C372.779 329.163 372.706 329.949 372.802 330.723L376.11 368.523C376.275 370.168 377.039 371.696 378.255 372.816C379.472 373.936 381.058 374.57 382.711 374.598H386.586L382.212 324.661Z" fill="#6558C0"/>
<path d="M382.212 324.661H378.337C377.558 324.636 376.782 324.78 376.063 325.083C375.344 325.386 374.7 325.841 374.174 326.417C373.648 326.993 373.253 327.676 373.016 328.42C372.779 329.163 372.706 329.949 372.802 330.723L376.11 368.523C376.275 370.168 377.039 371.696 378.255 372.816C379.472 373.936 381.058 374.57 382.711 374.598H386.586L382.212 324.661Z" fill="#6558C0"/>
<path d="M414.977 391.392H410.117L412.236 367.2H417.096L414.977 391.392Z" fill="#263238"/>
<path opacity="0.3" d="M414.977 391.392H410.117L412.236 367.2H417.096L414.977 391.392Z" fill="white"/>
<path d="M448.511 374.611H385.358C383.704 374.583 382.118 373.949 380.901 372.829C379.685 371.71 378.921 370.182 378.756 368.536L375.448 330.736C375.353 329.962 375.425 329.177 375.662 328.433C375.899 327.69 376.294 327.007 376.82 326.431C377.346 325.855 377.99 325.4 378.709 325.096C379.428 324.793 380.204 324.65 380.984 324.675H444.15C445.801 324.703 447.385 325.335 448.602 326.452C449.818 327.569 450.583 329.093 450.752 330.736L454.059 368.536C454.143 369.31 454.062 370.093 453.821 370.833C453.579 371.573 453.182 372.253 452.657 372.828C452.133 373.402 451.491 373.859 450.776 374.166C450.061 374.474 449.289 374.626 448.511 374.611Z" fill="#6558C0"/>
<path opacity="0.5" d="M448.511 374.611H385.358C383.704 374.583 382.118 373.949 380.901 372.829C379.685 371.71 378.921 370.182 378.756 368.536L375.448 330.736C375.353 329.962 375.425 329.177 375.662 328.433C375.899 327.69 376.294 327.007 376.82 326.431C377.346 325.855 377.99 325.4 378.709 325.096C379.428 324.793 380.204 324.65 380.984 324.675H444.15C445.801 324.703 447.385 325.335 448.602 326.452C449.818 327.569 450.583 329.093 450.752 330.736L454.059 368.536C454.143 369.31 454.062 370.093 453.821 370.833C453.579 371.573 453.182 372.253 452.657 372.828C452.133 373.402 451.491 373.859 450.776 374.166C450.061 374.474 449.289 374.626 448.511 374.611Z" fill="white"/>
<path opacity="0.5" d="M444.353 327.105H381.199C380.736 327.096 380.276 327.187 379.85 327.37C379.424 327.553 379.042 327.825 378.729 328.167C378.416 328.509 378.179 328.914 378.035 329.355C377.891 329.796 377.842 330.262 377.892 330.723L381.199 368.523C381.301 369.505 381.758 370.415 382.484 371.084C383.21 371.753 384.155 372.133 385.142 372.154H448.295C448.759 372.161 449.219 372.069 449.645 371.884C450.071 371.699 450.453 371.426 450.766 371.083C451.078 370.74 451.315 370.334 451.459 369.893C451.603 369.452 451.652 368.985 451.602 368.523L448.295 330.723C448.19 329.744 447.732 328.836 447.006 328.17C446.281 327.504 445.337 327.126 444.353 327.105Z" fill="white"/>
<path d="M400.855 397.764C400.963 394.454 402.354 391.316 404.733 389.012C407.113 386.709 410.295 385.421 413.606 385.421C416.918 385.421 420.1 386.709 422.479 389.012C424.859 391.316 426.249 394.454 426.357 397.764H400.855Z" fill="#6558C0"/>
<path opacity="0.5" d="M400.855 397.764C400.963 394.454 402.354 391.316 404.733 389.012C407.113 386.709 410.295 385.421 413.606 385.421C416.918 385.421 420.1 386.709 422.479 389.012C424.859 391.316 426.249 394.454 426.357 397.764H400.855Z" fill="white"/>
<path d="M430.11 336.393H395.375C395.202 336.39 395.03 336.424 394.872 336.492C394.713 336.561 394.571 336.662 394.455 336.79C394.339 336.918 394.251 337.069 394.198 337.233C394.144 337.397 394.127 337.571 394.146 337.743C394.185 338.108 394.356 338.447 394.627 338.695C394.898 338.944 395.25 339.085 395.617 339.093H430.353C430.526 339.096 430.697 339.062 430.856 338.994C431.014 338.925 431.156 338.824 431.273 338.696C431.389 338.568 431.477 338.417 431.53 338.253C431.583 338.088 431.601 337.915 431.582 337.743C431.545 337.376 431.375 337.036 431.103 336.787C430.832 336.538 430.478 336.398 430.11 336.393Z" fill="white"/>
<path d="M425.804 342.049H395.874C395.701 342.047 395.53 342.08 395.371 342.149C395.213 342.217 395.071 342.319 394.954 342.447C394.838 342.574 394.75 342.725 394.697 342.89C394.644 343.054 394.626 343.228 394.645 343.399C394.682 343.766 394.852 344.106 395.124 344.355C395.395 344.604 395.749 344.745 396.117 344.749H426.047C426.219 344.752 426.391 344.719 426.549 344.65C426.708 344.582 426.85 344.48 426.966 344.352C427.082 344.225 427.17 344.074 427.223 343.909C427.277 343.745 427.294 343.571 427.275 343.399C427.236 343.034 427.065 342.695 426.794 342.447C426.523 342.199 426.171 342.057 425.804 342.049Z" fill="white"/>
<path d="M429.3 347.706H396.373C396.201 347.703 396.029 347.737 395.871 347.805C395.712 347.874 395.57 347.975 395.454 348.103C395.338 348.231 395.25 348.382 395.197 348.546C395.143 348.711 395.126 348.884 395.145 349.056C395.175 349.423 395.342 349.764 395.612 350.014C395.882 350.264 396.235 350.404 396.603 350.406H429.502C429.676 350.411 429.848 350.379 430.008 350.311C430.168 350.243 430.311 350.142 430.427 350.014C430.544 349.885 430.632 349.733 430.684 349.568C430.737 349.403 430.752 349.228 430.731 349.056C430.698 348.695 430.535 348.359 430.271 348.11C430.008 347.861 429.662 347.718 429.3 347.706Z" fill="white"/>
<path d="M424.953 353.349H396.9C396.727 353.346 396.556 353.38 396.397 353.448C396.239 353.517 396.097 353.618 395.98 353.746C395.864 353.874 395.776 354.025 395.723 354.189C395.67 354.353 395.652 354.527 395.672 354.699C395.711 355.064 395.882 355.403 396.153 355.651C396.423 355.9 396.776 356.041 397.143 356.049H425.25C425.423 356.052 425.594 356.018 425.753 355.95C425.911 355.881 426.053 355.78 426.17 355.652C426.286 355.524 426.374 355.373 426.427 355.209C426.48 355.044 426.498 354.871 426.479 354.699C426.441 354.323 426.263 353.975 425.98 353.725C425.698 353.475 425.331 353.34 424.953 353.349Z" fill="white"/>
<g opacity="0.6">
<path opacity="0.6" d="M430.11 336.393H395.375C395.202 336.39 395.03 336.424 394.872 336.492C394.713 336.561 394.571 336.662 394.455 336.79C394.339 336.918 394.251 337.069 394.198 337.233C394.144 337.397 394.127 337.571 394.146 337.743C394.185 338.108 394.356 338.447 394.627 338.695C394.898 338.944 395.25 339.085 395.617 339.093H430.353C430.526 339.096 430.697 339.062 430.856 338.994C431.014 338.925 431.156 338.824 431.273 338.696C431.389 338.568 431.477 338.417 431.53 338.253C431.583 338.088 431.601 337.915 431.582 337.743C431.545 337.376 431.375 337.036 431.103 336.787C430.832 336.538 430.478 336.398 430.11 336.393Z" fill="white"/>
<path opacity="0.6" d="M425.804 342.049H395.874C395.701 342.047 395.53 342.08 395.371 342.149C395.213 342.217 395.071 342.319 394.954 342.447C394.838 342.574 394.75 342.725 394.697 342.89C394.644 343.054 394.626 343.228 394.645 343.399C394.682 343.766 394.852 344.106 395.124 344.355C395.395 344.604 395.749 344.745 396.117 344.749H426.047C426.219 344.752 426.391 344.719 426.549 344.65C426.708 344.582 426.85 344.48 426.966 344.352C427.082 344.225 427.17 344.074 427.223 343.909C427.277 343.745 427.294 343.571 427.275 343.399C427.236 343.034 427.065 342.695 426.794 342.447C426.523 342.199 426.171 342.057 425.804 342.049Z" fill="white"/>
<path opacity="0.6" d="M429.3 347.706H396.373C396.201 347.703 396.029 347.737 395.871 347.805C395.712 347.874 395.57 347.975 395.454 348.103C395.338 348.231 395.25 348.382 395.197 348.546C395.143 348.711 395.126 348.884 395.145 349.056C395.175 349.423 395.342 349.764 395.612 350.014C395.882 350.264 396.235 350.404 396.603 350.406H429.502C429.676 350.411 429.848 350.379 430.008 350.311C430.168 350.243 430.311 350.142 430.427 350.014C430.544 349.885 430.632 349.733 430.684 349.568C430.737 349.403 430.752 349.228 430.731 349.056C430.698 348.695 430.535 348.359 430.271 348.11C430.008 347.861 429.662 347.718 429.3 347.706Z" fill="white"/>
<path opacity="0.6" d="M424.953 353.349H396.9C396.727 353.346 396.556 353.38 396.397 353.448C396.239 353.517 396.097 353.618 395.98 353.746C395.864 353.874 395.776 354.025 395.723 354.189C395.67 354.353 395.652 354.527 395.672 354.699C395.711 355.064 395.882 355.403 396.153 355.651C396.423 355.9 396.776 356.041 397.143 356.049H425.25C425.423 356.052 425.594 356.018 425.753 355.95C425.911 355.881 426.053 355.78 426.17 355.652C426.286 355.524 426.374 355.373 426.427 355.209C426.48 355.044 426.498 354.871 426.479 354.699C426.441 354.323 426.263 353.975 425.98 353.725C425.698 353.475 425.331 353.34 424.953 353.349Z" fill="white"/>
</g>
<path d="M500.634 304.708C500.634 304.708 492.642 306.234 492.777 301.36C492.912 296.487 501.16 298.755 501.16 298.755L500.634 304.708Z" fill="#1A2E35"/>
<path opacity="0.4" d="M500.634 304.708C500.634 304.708 492.642 306.234 492.777 301.36C492.912 296.487 501.16 298.755 501.16 298.755L500.634 304.708Z" fill="black"/>
<path d="M495.639 316.372L491.98 322.123C492.653 322.549 493.417 322.812 494.209 322.889C495.002 322.966 495.801 322.857 496.544 322.569L495.639 316.372Z" fill="#A24E3F"/>
<path d="M493.425 315.576C493.425 316.318 493.803 316.926 494.289 316.926C494.775 316.926 495.207 316.305 495.194 315.576C495.18 314.847 494.829 314.226 494.33 314.226C493.83 314.226 493.452 314.833 493.425 315.576Z" fill="#1A2E35"/>
<path d="M522.031 310.945C522.355 320.8 522.706 324.972 518.238 330.466C511.164 336.298 499.338 336.987 496.058 327.429C493.128 318.816 493.087 304.182 502.308 299.322C504.339 298.266 506.605 297.743 508.894 297.804C511.183 297.865 513.418 298.507 515.39 299.669C517.363 300.831 519.007 302.476 520.169 304.449C521.33 306.421 521.971 308.657 522.031 310.945Z" fill="#B97964"/>
<path opacity="0.2" d="M508.194 334.665L508.127 334.179C508.088 333.928 507.997 333.688 507.859 333.475C507.721 333.261 507.54 333.079 507.327 332.94C507.115 332.802 506.875 332.709 506.625 332.669C506.374 332.629 506.117 332.642 505.872 332.707L501.822 333.801C503.841 334.615 506.031 334.912 508.194 334.665Z" fill="black"/>
<path d="M496.098 312.214C496.033 312.223 495.967 312.215 495.905 312.192C495.844 312.168 495.789 312.129 495.747 312.079C495.446 311.704 495.06 311.405 494.621 311.208C494.183 311.011 493.703 310.921 493.223 310.945C493.121 310.953 493.021 310.923 492.941 310.861C492.861 310.798 492.807 310.708 492.791 310.608C492.783 310.557 492.786 310.505 492.799 310.456C492.812 310.406 492.835 310.36 492.867 310.319C492.898 310.279 492.938 310.245 492.983 310.221C493.027 310.196 493.077 310.181 493.128 310.176C493.733 310.122 494.342 310.217 494.902 310.452C495.462 310.687 495.956 311.056 496.341 311.526C496.414 311.599 496.456 311.699 496.456 311.803C496.456 311.906 496.414 312.006 496.341 312.079C496.312 312.118 496.276 312.15 496.234 312.173C496.192 312.196 496.146 312.21 496.098 312.214Z" fill="#1A2E35"/>
<path d="M507.83 332.181L509.989 346.801L522.207 344.277L518.292 329.305L507.83 332.181Z" fill="#B97964"/>
<path d="M502.916 317.992L500.85 319.639C499.972 315.893 500.245 311.969 501.633 308.38L499.176 304.641L499.554 302.116C499.554 302.116 495.734 295.933 498.717 294.097C501.701 292.261 503.604 296.082 503.604 296.082C503.604 296.082 505.656 289.98 509.247 290.817C512.838 291.654 511.002 295.474 511.002 295.474C511.002 295.474 516.807 291.276 519.548 293.341C522.288 295.407 518.859 298.296 518.859 298.296C518.859 298.296 525.812 298.458 526.041 301.198C526.271 303.939 523.206 304.182 523.206 304.182C523.206 304.182 527.796 305.775 527.715 308.232C527.634 310.689 524.057 310.824 524.057 310.824C524.057 310.824 528.714 313.794 527.715 316.386C527.466 317.092 526.951 317.672 526.28 318.002C525.609 318.333 524.835 318.388 524.124 318.154C524.124 318.154 526.541 321.246 525.731 322.92C525.448 323.413 525.028 323.814 524.523 324.075C524.018 324.336 523.448 324.446 522.882 324.391L518.913 331.438C517.864 331.084 516.74 331.009 515.653 331.222C514.566 331.435 513.554 331.929 512.717 332.653L505.589 320.935L502.916 317.992Z" fill="#1A2E35"/>
<path d="M501.687 315.333C501.512 316.316 501.533 317.325 501.748 318.3C501.964 319.275 502.369 320.198 502.942 321.016C504.481 323.19 506.993 322.218 507.938 319.896C508.829 317.79 509.085 314.131 506.844 312.781C506.352 312.489 505.795 312.325 505.224 312.303C504.653 312.281 504.085 312.403 503.572 312.656C503.06 312.91 502.619 313.288 502.29 313.755C501.96 314.223 501.753 314.765 501.687 315.333Z" fill="#B97964"/>
<path d="M524.678 342.684L522.261 335.853C519.171 334.698 515.839 334.339 512.573 334.811C509.308 335.283 506.214 336.57 503.577 338.553L510.435 342.603L524.678 342.684Z" fill="#263238"/>
<path opacity="0.2" d="M523.557 339.538C518.038 338.243 512.26 338.614 506.952 340.605L510.435 342.684H524.678L523.557 339.538Z" fill="black"/>
<path d="M481.95 387.706L472.932 383.184C472.671 383.067 472.388 383.007 472.102 383.007C471.816 383.007 471.533 383.067 471.272 383.184L463.901 386.1C463.541 386.239 463.229 386.478 463.002 386.789C462.774 387.1 462.641 387.47 462.618 387.855L462.483 390.258C462.465 390.592 462.529 390.925 462.67 391.228C462.81 391.531 463.023 391.795 463.29 391.996C463.557 392.198 463.869 392.33 464.199 392.383C464.529 392.435 464.867 392.405 465.183 392.296L467.883 391.351C472.234 393.109 477.07 393.252 481.518 391.756L481.95 387.706Z" fill="#B97964"/>
<path d="M447.701 388.233L438.75 383.656C438.493 383.529 438.213 383.457 437.927 383.446C437.641 383.434 437.355 383.483 437.089 383.589L429.705 386.572C429.346 386.718 429.036 386.963 428.811 387.279C428.586 387.594 428.456 387.968 428.436 388.354L428.301 390.784C428.28 391.119 428.343 391.454 428.483 391.759C428.622 392.064 428.835 392.33 429.102 392.533C429.369 392.736 429.682 392.869 430.014 392.922C430.345 392.975 430.684 392.946 431.001 392.836L433.701 391.891C438.049 393.664 442.891 393.808 447.336 392.296L447.701 388.233Z" fill="#B97964"/>
<path d="M529.618 345.262C525.204 349.015 514.161 360.031 499.824 385.83H481.504C481.504 385.83 478.912 387.936 479.979 393.241C479.979 393.241 498.771 399.924 503.874 397.642C508.977 395.361 525.474 370.075 532.872 361.071C535.437 357.952 539.851 353.781 533.479 345.667C533.256 345.382 532.978 345.145 532.661 344.969C532.344 344.794 531.995 344.684 531.635 344.646C531.275 344.608 530.91 344.643 530.564 344.749C530.218 344.855 529.896 345.03 529.618 345.262Z" fill="#263238"/>
<path opacity="0.2" d="M509.153 381.456L504.752 377.311C503.159 380.011 501.512 382.779 499.824 385.83H495.45L498.231 397.98C500.131 398.337 502.089 398.235 503.942 397.683C505.292 397.075 507.411 394.888 509.949 391.824L509.153 381.456Z" fill="black"/>
<path d="M505.832 521.532L510.017 541.809L518.265 540.58L516.281 520.843L505.832 521.532Z" fill="#B97964"/>
<path opacity="0.2" d="M517.59 533.857L516.281 520.843L505.832 521.532L508.451 534.208L517.59 533.857Z" fill="black"/>
<path d="M554.85 428.044C554.85 428.044 559.035 450.022 544.698 450.022C530.361 450.022 511.259 454.72 511.259 454.72C511.259 454.72 516.753 459.931 518.009 526.446L506.102 526.959C506.102 526.959 486.324 451.885 490.226 443.637C495.72 432.013 524.178 428.044 524.178 428.044H554.85Z" fill="#6558C0"/>
<path d="M504.724 524.61L518.481 524.205L519.183 530.914L505.602 531.508L504.724 524.61Z" fill="#6558C0"/>
<path opacity="0.5" d="M504.724 524.61L518.481 524.205L519.183 530.914L505.602 531.508L504.724 524.61Z" fill="white"/>
<path d="M506.25 543.078C505.364 543.289 504.431 543.164 503.631 542.727C503.527 542.607 503.464 542.459 503.449 542.301C503.435 542.144 503.47 541.986 503.55 541.849C503.604 541.722 503.683 541.608 503.783 541.513C503.883 541.418 504.001 541.344 504.13 541.296C505.48 540.729 508.721 542.079 508.869 542.133C508.907 542.151 508.938 542.18 508.96 542.216C508.981 542.252 508.992 542.294 508.991 542.335C508.984 542.377 508.967 542.416 508.941 542.45C508.915 542.483 508.881 542.508 508.842 542.524C507.995 542.782 507.128 542.967 506.25 543.078ZM504.67 541.579C504.541 541.592 504.413 541.624 504.292 541.674C504.211 541.701 504.136 541.744 504.073 541.803C504.01 541.861 503.961 541.932 503.928 542.011C503.806 542.281 503.928 542.389 503.928 542.457C504.387 542.97 506.56 542.713 508.14 542.335C507.058 541.873 505.9 541.617 504.724 541.579H504.67Z" fill="#6558C0"/>
<path d="M508.869 542.524H508.774C507.694 542.2 505.413 540.58 505.48 539.595C505.48 539.352 505.615 539.055 506.169 538.92C506.574 538.834 506.996 538.912 507.343 539.136C508.238 539.986 508.842 541.096 509.071 542.308C509.087 542.338 509.095 542.37 509.095 542.403C509.095 542.436 509.087 542.468 509.071 542.497C509.046 542.525 509.012 542.542 508.975 542.547C508.938 542.552 508.901 542.544 508.869 542.524ZM506.344 539.298H506.25C505.899 539.379 505.885 539.527 505.872 539.581C505.872 540.162 507.424 541.458 508.572 541.971C508.352 541.006 507.838 540.133 507.1 539.473C506.889 539.324 506.628 539.261 506.371 539.298H506.344Z" fill="#6558C0"/>
<path d="M509.625 541.215L519.075 540.094C519.247 540.072 519.421 540.11 519.569 540.201C519.716 540.292 519.828 540.43 519.885 540.594L522.491 548.019C522.549 548.175 522.575 548.341 522.568 548.507C522.561 548.673 522.522 548.836 522.451 548.987C522.381 549.138 522.281 549.273 522.158 549.385C522.035 549.497 521.891 549.583 521.735 549.639L521.465 549.706C518.076 550.057 515.052 550.233 510.84 550.732C505.872 551.34 507.195 551.785 501.39 552.568C497.88 553.027 496.759 549.112 498.218 548.734C504.968 547.047 505.413 544.9 507.762 542.146C508.251 541.622 508.912 541.291 509.625 541.215Z" fill="#263238"/>
<path opacity="0.1" d="M515.052 446.323H494.1L489.659 448.2C490.075 454.551 490.928 460.866 492.21 467.1L513.283 461.025C512.122 455.557 511.218 454.707 511.218 454.707C511.218 454.707 513.135 454.234 516.199 453.586L515.052 446.323Z" fill="black"/>
<path opacity="0.1" d="M529.2 447.849C528.946 449.003 528.797 450.178 528.755 451.359C533.583 450.617 538.452 450.166 543.335 450.009C544.888 448.381 545.81 446.252 545.934 444.004C546.057 441.757 545.375 439.54 544.01 437.751L535.613 441.571L529.2 447.849Z" fill="black"/>
<path d="M481.68 526.972L489.456 545.872L497.043 544.347L491.832 524.124L481.68 526.972Z" fill="#B97964"/>
<path opacity="0.2" d="M495.302 537.624L491.832 524.124L481.68 526.972L486.742 539.257L495.302 537.624Z" fill="black"/>
<path d="M544.523 429.3C544.523 429.3 548.721 451.278 534.371 451.278C520.02 451.278 476.982 464.508 476.982 464.508C476.982 464.508 483.314 466.843 494.303 528.201L481.869 531.022C481.869 531.022 450.819 464.116 454.694 455.868C460.188 444.258 513.824 429.3 513.824 429.3H544.523Z" fill="#6558C0"/>
<path d="M480.344 530.212L495.099 527.053L496.625 533.155L482.477 536.422L480.344 530.212Z" fill="#6558C0"/>
<path opacity="0.5" d="M480.344 530.212L495.099 527.053L496.625 533.155L482.477 536.422L480.344 530.212Z" fill="white"/>
<path d="M484.771 546.75C483.889 546.946 482.965 546.822 482.166 546.399C482.061 546.277 481.997 546.126 481.983 545.966C481.968 545.807 482.004 545.646 482.085 545.508C482.139 545.381 482.218 545.266 482.318 545.171C482.418 545.076 482.536 545.002 482.665 544.954C484.015 544.387 487.255 545.737 487.39 545.791C487.429 545.81 487.461 545.839 487.485 545.875C487.509 545.91 487.523 545.951 487.525 545.994C487.522 546.037 487.506 546.077 487.48 546.111C487.454 546.145 487.418 546.17 487.377 546.183C486.526 546.447 485.655 546.636 484.771 546.75ZM483.205 545.238C483.075 545.249 482.947 545.281 482.827 545.332C482.744 545.355 482.668 545.398 482.604 545.457C482.541 545.515 482.492 545.589 482.463 545.67C482.341 545.94 482.463 546.048 482.463 546.115C482.922 546.628 485.095 546.385 486.675 545.994C485.578 545.52 484.4 545.259 483.205 545.224V545.238Z" fill="#6558C0"/>
<path d="M487.35 546.169H487.256C486.176 545.845 483.881 544.225 483.948 543.24C483.948 542.997 484.083 542.7 484.637 542.578C484.836 542.53 485.043 542.523 485.245 542.558C485.447 542.593 485.64 542.669 485.811 542.781C486.713 543.628 487.322 544.738 487.553 545.953C487.568 545.983 487.576 546.015 487.576 546.048C487.576 546.081 487.568 546.113 487.553 546.142C487.527 546.17 487.493 546.187 487.456 546.192C487.419 546.197 487.382 546.189 487.35 546.169ZM484.826 542.943H484.65C484.286 543.024 484.286 543.172 484.272 543.226C484.272 543.82 485.825 545.116 486.972 545.616C486.756 544.653 486.247 543.78 485.514 543.118C485.302 542.969 485.042 542.906 484.785 542.943H484.826Z" fill="#6558C0"/>
<path d="M488.106 544.86L497.489 543.739C497.661 543.715 497.836 543.751 497.984 543.842C498.132 543.934 498.243 544.074 498.298 544.239L500.917 551.664C501.03 551.981 501.012 552.329 500.868 552.633C500.724 552.937 500.465 553.171 500.148 553.284L499.892 553.351C496.503 553.702 493.479 553.878 489.267 554.391C484.286 554.985 485.622 555.43 479.817 556.213C476.307 556.686 475.173 552.757 476.644 552.379C483.394 550.705 483.84 548.545 486.175 545.791C486.685 545.258 487.371 544.927 488.106 544.86Z" fill="#263238"/>
<path d="M493.655 344.466C493.647 344.039 493.726 343.615 493.886 343.219C494.047 342.824 494.285 342.465 494.588 342.163C494.89 341.862 495.251 341.625 495.647 341.466C496.043 341.307 496.468 341.23 496.895 341.239L524.556 341.779C527.873 341.846 531.114 342.78 533.957 344.491C536.8 346.201 539.144 348.627 540.756 351.527C547.169 362.975 555.606 386.397 555.404 430.488H509.504C509.504 430.488 493.925 373.261 493.655 344.466Z" fill="#263238"/>
<path opacity="0.4" d="M494.33 355.59C494.991 362.218 496.071 369.522 497.381 376.906C504.333 362.34 500.607 350.419 500.607 350.419L494.33 355.59Z" fill="black"/>
<path d="M493.749 342.468C490.522 346.234 485.514 353.767 470.34 381.388L447.133 386.329C447.133 386.329 444.541 388.462 445.608 393.835C445.608 393.835 470.515 398.115 475.618 395.806C480.721 393.498 493.749 373.896 499.73 363.757C502.2 359.572 503.51 351.324 496.084 342.495C495.942 342.325 495.764 342.188 495.564 342.093C495.363 341.998 495.145 341.947 494.923 341.945C494.701 341.942 494.481 341.988 494.279 342.078C494.076 342.168 493.895 342.301 493.749 342.468Z" fill="#263238"/>
<path d="M574.546 555.93L540.513 543.402L506.115 555.943C505.84 556.043 505.544 556.075 505.254 556.037C504.964 555.998 504.687 555.89 504.447 555.722C504.208 555.554 504.012 555.33 503.877 555.07C503.742 554.81 503.671 554.522 503.672 554.229C503.674 553.883 503.774 553.545 503.961 553.254C504.147 552.962 504.412 552.729 504.725 552.582L540.513 535.95L575.95 552.555C576.262 552.703 576.525 552.936 576.709 553.228C576.893 553.519 576.99 553.857 576.99 554.202C576.996 554.497 576.929 554.789 576.796 555.052C576.662 555.316 576.467 555.543 576.226 555.713C575.985 555.883 575.706 555.992 575.413 556.03C575.12 556.068 574.823 556.033 574.546 555.93Z" fill="#263238"/>
<path opacity="0.3" d="M574.546 555.93L540.513 543.402L506.115 555.943C505.84 556.043 505.544 556.075 505.254 556.037C504.964 555.998 504.687 555.89 504.447 555.722C504.208 555.554 504.012 555.33 503.877 555.07C503.742 554.81 503.671 554.522 503.672 554.229C503.674 553.883 503.774 553.545 503.961 553.254C504.147 552.962 504.412 552.729 504.725 552.582L540.513 535.95L575.95 552.555C576.262 552.703 576.525 552.936 576.709 553.228C576.893 553.519 576.99 553.857 576.99 554.202C576.996 554.497 576.929 554.789 576.796 555.052C576.662 555.316 576.467 555.543 576.226 555.713C575.985 555.883 575.706 555.992 575.413 556.03C575.12 556.068 574.823 556.033 574.546 555.93Z" fill="white"/>
<path opacity="0.2" d="M532.494 546.331L540.513 543.402L548.168 546.223V539.568L540.513 535.977L532.494 539.703V546.331Z" fill="black"/>
<path d="M540.338 556.2C539.591 556.201 538.87 555.926 538.315 555.427C537.759 554.929 537.407 554.242 537.327 553.5L536.369 543.415V459.715H544.307V543.415L543.335 553.5C543.255 554.24 542.905 554.924 542.352 555.423C541.799 555.921 541.082 556.198 540.338 556.2Z" fill="#263238"/>
<path opacity="0.3" d="M540.338 556.2C539.591 556.201 538.87 555.926 538.315 555.427C537.759 554.929 537.407 554.242 537.327 553.5L536.369 543.415V459.715H544.307V543.415L543.335 553.5C543.255 554.24 542.905 554.924 542.352 555.423C541.799 555.921 541.082 556.198 540.338 556.2Z" fill="white"/>
<path opacity="0.2" d="M544.307 459.675H536.369V469.422H544.307V459.675Z" fill="black"/>
<path d="M595.539 452.061C586.557 449.773 577.346 448.505 568.08 448.281C558.535 448.038 522.855 448.281 514.377 448.281C504.043 448.275 493.748 449.558 483.732 452.101C477.441 453.708 479.371 462.78 485.082 462.901C485.595 462.901 593.487 462.901 593.879 462.901C599.792 463.117 601.965 453.694 595.539 452.061Z" fill="#6558C0"/>
<path opacity="0.3" d="M595.539 452.061C586.557 449.773 577.346 448.505 568.08 448.281C558.535 448.038 522.855 448.281 514.377 448.281C504.043 448.275 493.748 449.558 483.732 452.101C477.441 453.708 479.371 462.78 485.082 462.901C485.595 462.901 593.487 462.901 593.879 462.901C599.792 463.117 601.965 453.694 595.539 452.061Z" fill="black"/>
<path d="M486.648 462.658C504.839 458.028 523.901 458.028 542.092 462.658C548.95 464.4 551.88 453.802 545.022 452.061C524.911 446.958 503.843 446.958 483.732 452.061C476.887 453.802 479.79 464.413 486.648 462.658Z" fill="#6558C0"/>
<g opacity="0.3">
<path opacity="0.3" d="M486.648 462.658C504.839 458.028 523.901 458.028 542.092 462.658C548.95 464.4 551.88 453.802 545.022 452.061C524.911 446.958 503.843 446.958 483.732 452.061C476.887 453.802 479.79 464.413 486.648 462.658Z" fill="white"/>
</g>
<path d="M566.676 373.423C566.057 373.409 565.447 373.566 564.911 373.875C564.376 374.185 563.935 374.636 563.639 375.178C549.12 399.518 543.907 428.292 548.964 456.179C549.031 456.893 549.353 457.558 549.872 458.054C550.39 458.55 551.069 458.843 551.786 458.879C553.986 459.027 593.149 458.879 594.58 458.879C595.161 458.892 595.737 458.778 596.268 458.543C596.799 458.309 597.272 457.96 597.652 457.521C598.033 457.083 598.312 456.565 598.469 456.007C598.627 455.448 598.659 454.861 598.563 454.289C593.989 428.323 598.941 401.579 612.508 378.972C614.182 376.191 611.712 373.572 609.214 373.572C608.08 373.396 569.174 373.477 566.676 373.423Z" fill="#6558C0"/>
<path opacity="0.2" d="M566.676 373.423C566.057 373.409 565.447 373.566 564.911 373.875C564.376 374.185 563.935 374.636 563.639 375.178C549.12 399.518 543.907 428.292 548.964 456.179C549.031 456.893 549.353 457.558 549.872 458.054C550.39 458.55 551.069 458.843 551.786 458.879C553.986 459.027 593.149 458.879 594.58 458.879C595.161 458.892 595.737 458.778 596.268 458.543C596.799 458.309 597.272 457.96 597.652 457.521C598.033 457.083 598.312 456.565 598.469 456.007C598.627 455.448 598.659 454.861 598.563 454.289C593.989 428.323 598.941 401.579 612.508 378.972C614.182 376.191 611.712 373.572 609.214 373.572C608.08 373.396 569.174 373.477 566.676 373.423Z" fill="black"/>
<path d="M556.024 454.18C551.457 428.215 556.408 401.473 569.97 378.864C572.413 374.814 566.068 371.128 563.638 375.178C549.12 399.518 543.907 428.292 548.964 456.178C549.801 460.809 556.861 458.878 556.024 454.234V454.18Z" fill="#6558C0"/>
<g opacity="0.2">
<path opacity="0.2" d="M556.024 454.18C551.457 428.215 556.408 401.473 569.97 378.864C572.413 374.814 566.068 371.128 563.638 375.178C549.12 399.518 543.907 428.292 548.964 456.178C549.801 460.809 556.861 458.878 556.024 454.234V454.18Z" fill="white"/>
</g>
</svg>
